<svg width="245.68" height="62" xmlns="http://www.w3.org/2000/svg" fill="#ffffff" viewBox="0 0 245.68 62">
<path d="M190,25.67l-3.88-4.54a12,12,0,0,1-.51,1.12,5.41,5.41,0,0,1-2.27,2.66,7,7,0,0,1-3.78,1,8.65,8.65,0,0,1-4.23-1,7,7,0,0,1-2.79-2.75,8.14,8.14,0,0,1-1-4,8.27,8.27,0,0,1,.85-3.85,6.42,6.42,0,0,1,2.3-2.58,6.53,6.53,0,0,1,3.26-1l-.43-.64a10.11,10.11,0,0,1-1.12-2A6,6,0,0,1,176,5.9,5.51,5.51,0,0,1,176.83,3,5.83,5.83,0,0,1,179.24.83,8.24,8.24,0,0,1,183.07,0a7.57,7.57,0,0,1,5,1.44,6.44,6.44,0,0,1,2.25,3.71,7.24,7.24,0,0,1,.36,2.3l0,.69h-4.72a6.72,6.72,0,0,0-.07-1.23,2.94,2.94,0,0,0-.72-2,2.58,2.58,0,0,0-1.91-.7,2.39,2.39,0,0,0-1.76.65,2.12,2.12,0,0,0-.65,1.58,3.06,3.06,0,0,0,.32,1.44,9.67,9.67,0,0,0,1.08,1.52L195.1,25.67Zm-7.86-5a3.28,3.28,0,0,0,1-2.47A3.43,3.43,0,0,0,182,15.62a3.84,3.84,0,0,0-2.68-1,3.41,3.41,0,0,0-2.43.9,3.36,3.36,0,0,0-1,2.56A3.43,3.43,0,0,0,177,20.68a3.69,3.69,0,0,0,2.61,1A3.54,3.54,0,0,0,182.12,20.72Z"/>
<path d="M219.65,7.4a9.69,9.69,0,0,1,3.35,6h-7.49a2.91,2.91,0,0,0-.92-1.6,2.7,2.7,0,0,0-3.82.54,5.29,5.29,0,0,0-.81,3.18,5.31,5.31,0,0,0,.81,3.21,2.53,2.53,0,0,0,2.11,1.08,2.57,2.57,0,0,0,1.71-.56,3,3,0,0,0,.92-1.6H223a9.77,9.77,0,0,1-3.35,6,10,10,0,0,1-6.59,2.2,11.15,11.15,0,0,1-5.35-1.24,8.82,8.82,0,0,1-3.61-3.6,11.25,11.25,0,0,1-1.3-5.53A11.14,11.14,0,0,1,204.1,10a8.76,8.76,0,0,1,3.63-3.58,11.18,11.18,0,0,1,5.33-1.24A10.1,10.1,0,0,1,219.65,7.4Z"/>
<path d="M240.55,6.46a9.12,9.12,0,0,1,3.76,3.6,10.66,10.66,0,0,1,1.37,5.49,10.65,10.65,0,0,1-1.37,5.51,9.24,9.24,0,0,1-3.76,3.6,11.43,11.43,0,0,1-5.42,1.26,11.56,11.56,0,0,1-5.43-1.26,9.23,9.23,0,0,1-3.78-3.6,10.75,10.75,0,0,1-1.37-5.51A10.75,10.75,0,0,1,225.92,10a9.12,9.12,0,0,1,3.78-3.58,11.67,11.67,0,0,1,5.43-1.24A11.55,11.55,0,0,1,240.55,6.46Zm-7.86,6a4.52,4.52,0,0,0-1,3.13,4.59,4.59,0,0,0,1,3.17,3.25,3.25,0,0,0,4.86,0,4.64,4.64,0,0,0,1-3.15,4.56,4.56,0,0,0-1-3.13,3.27,3.27,0,0,0-4.86,0Z"/>
<path d="M15.94,31.91a3.72,3.72,0,0,0-2.45.65,3.1,3.1,0,0,0-.91,2.18h4.36v7.87H12.53V61.67H3.07V42.61H0V34.74H3.07c0-3.46,1-6.14,3.07-8s5-2.86,8.84-2.86c.41,0,1.07,0,2,.1v8A6.4,6.4,0,0,0,15.94,31.91Z"/>
<path d="M33.52,35.94a9.72,9.72,0,0,1,5.09-1.44V44.58H35.87a7.73,7.73,0,0,0-4.75,1.22c-1.06.82-1.59,2.24-1.59,4.25V61.67H20.08V34.74h9.45v5A12.39,12.39,0,0,1,33.52,35.94Z"/>
<path d="M67.16,49.91H49.35q.24,4.56,4,4.56a3.84,3.84,0,0,0,2.3-.67A3.39,3.39,0,0,0,56.89,52h10a11.34,11.34,0,0,1-2.35,5.11,12.7,12.7,0,0,1-4.61,3.58A14.3,14.3,0,0,1,53.82,62a14.92,14.92,0,0,1-7.13-1.65,11.87,11.87,0,0,1-4.83-4.8,15.09,15.09,0,0,1-1.72-7.37,14.91,14.91,0,0,1,1.72-7.34,11.75,11.75,0,0,1,4.85-4.78,15,15,0,0,1,7.11-1.66A14.91,14.91,0,0,1,60.92,36a11.64,11.64,0,0,1,4.78,4.65,14.1,14.1,0,0,1,1.7,7A11.36,11.36,0,0,1,67.16,49.91ZM56.7,42.85a4.12,4.12,0,0,0-2.88-1.05,4.4,4.4,0,0,0-3,1.05A4.59,4.59,0,0,0,49.4,46h8.4A3.94,3.94,0,0,0,56.7,42.85Z"/>
<path d="M71.55,23.82a5.86,5.86,0,0,1,4-1.37,5.67,5.67,0,0,1,4,1.37,4.52,4.52,0,0,1,1.49,3.48,4.32,4.32,0,0,1-1.52,3.36,5.69,5.69,0,0,1-4,1.34,5.89,5.89,0,0,1-4-1.34A4.3,4.3,0,0,1,70,27.3,4.46,4.46,0,0,1,71.55,23.82Zm8.69,10.92V61.67H70.78V34.74Z"/>
<path d="M96.14,36.16a10.46,10.46,0,0,1,5.48-1.47v7.25h-2q-7.44,0-7.44,6.91V61.67H85.44V35.08h6.77v5.08A11.08,11.08,0,0,1,96.14,36.16Z"/>
<path d="M121.1,36.32a8.68,8.68,0,0,1,3.41,4.28V35.08h6.72V61.67h-6.72V56.1a8.86,8.86,0,0,1-3.41,4.3,10.12,10.12,0,0,1-5.76,1.6,11.41,11.41,0,0,1-6-1.63,11,11,0,0,1-4.2-4.73,16.33,16.33,0,0,1-1.51-7.27,16.36,16.36,0,0,1,1.51-7.27,11.09,11.09,0,0,1,4.2-4.73,11.5,11.5,0,0,1,6-1.63A10.27,10.27,0,0,1,121.1,36.32Zm-8.74,6.39a8,8,0,0,0-1.92,5.66A7.9,7.9,0,0,0,112.36,54a7.27,7.27,0,0,0,10.15,0,7.75,7.75,0,0,0,2-5.59,7.82,7.82,0,0,0-2-5.64,7.23,7.23,0,0,0-10.15,0Z"/>
<path d="M162.63,35.08V61.67h-6.77V56.29a8.45,8.45,0,0,1-3.48,4.2A10.33,10.33,0,0,1,146.79,62a9.41,9.41,0,0,1-7.35-3c-1.82-2-2.73-4.83-2.73-8.45V35.08h6.72V49.76a6.91,6.91,0,0,0,1.63,4.92,5.75,5.75,0,0,0,4.42,1.76,6,6,0,0,0,4.65-1.88,7.64,7.64,0,0,0,1.73-5.37V35.08Z"/>
<path d="M209.92,37.69q2.81,3,2.81,8.52V61.67H206V47a6.65,6.65,0,0,0-1.56-4.73,5.63,5.63,0,0,0-4.3-1.65,5.92,5.92,0,0,0-4.51,1.77A7.28,7.28,0,0,0,194,47.56V61.67h-6.72V47a6.65,6.65,0,0,0-1.56-4.73,5.63,5.63,0,0,0-4.3-1.65,5.93,5.93,0,0,0-4.51,1.77,7.28,7.28,0,0,0-1.68,5.19V61.67h-6.77V35.08h6.77v5a8.26,8.26,0,0,1,3.34-4,9.8,9.8,0,0,1,5.3-1.42,10,10,0,0,1,5.59,1.54A9.33,9.33,0,0,1,193,40.64a10.6,10.6,0,0,1,16.92-3Z"/>
<path d="M227.38,52.45v9.22h-9.55V52.45Z"/>
</svg>